Coordinates
version=1
nRows=6
nColumns=36
inDegrees=yes

Units are S.I. units (second, meters, Newtons, ...)
If the header above contains a line with 'inDegrees', this indicates whether rotational values are in degrees (yes) or radians (no).

endheader
time	pelvis_tilt	pelvis_list	pelvis_rotation	pelvis_tx	pelvis_ty	pelvis_tz	hip_flexion_r	hip_adduction_r	hip_rotation_r	knee_angle_r	knee_angle_r_beta	ankle_angle_r	subtalar_angle_r	mtp_angle_r	hip_flexion_l	hip_adduction_l	hip_rotation_l	knee_angle_l	knee_angle_l_beta	ankle_angle_l	subtalar_angle_l	mtp_angle_l	lumbar_extension	lumbar_bending	lumbar_rotation	arm_flex_r	arm_add_r	arm_rot_r	elbow_flex_r	pro_sup_r	arm_flex_l	arm_add_l	arm_rot_l	elbow_flex_l	pro_sup_l
      1.98333330	     -4.78856284	      3.67929672	     -8.86186323	      0.08026949	      1.19999008	      0.12777409	      1.57072641	     -0.56672222	    -12.68708351	      0.59462040	      0.01037808	      6.87851078	     -7.00473634	     -7.49999987	      1.30768582	     -1.40966624	     -7.83457747	      2.81090404	      0.04905953	      5.34930083	      1.12498570	     -7.49999987	      2.60283284	     -2.29601603	      0.99786414	      3.61025955	     -7.56855931	     26.50418239	     27.89537150	     66.26611191	      5.38405932	     -8.18765243	     27.87234414	     26.32110981	     61.85968462
      2.00000000	     -4.71683892	      3.69729921	     -8.85735282	      0.08207155	      1.19917776	      0.12722446	      1.35829596	     -0.63656563	    -12.83827874	      0.57825734	      0.01009249	      6.67145246	     -7.08884330	     -7.49999987	      1.11962876	     -1.34647734	     -7.71599051	      2.66917409	      0.04658588	      5.05838752	      0.83455056	     -7.49999987	      2.66911331	     -2.26096626	      0.95646895	      3.82486812	     -7.62351803	     26.44150962	     28.11701951	     66.67787759	      5.38246429	     -8.23202282	     27.84172795	     26.25036941	     61.82428228
      2.01666670	     -4.62444077	      3.70609452	     -8.96589590	      0.08103761	      1.19873054	      0.12719562	      1.22417007	     -0.67572124	    -12.68595613	      0.56154809	      0.00980086	      6.99704712	     -6.72763425	     -7.49999987	      0.96502834	     -1.31192583	     -7.77236007	      2.49007339	      0.04345998	      4.99242063	      0.94038253	     -7.49999987	      2.64875494	     -2.23795869	      1.04722524	      3.96629735	     -7.67724847	     26.08046006	     28.63912165	     65.47467129	      5.37014700	     -8.24741148	     26.98613131	     26.57249284	     61.19125401
      2.03333330	     -4.61507290	      3.69725676	     -8.84592276	      0.08291538	      1.19821769	      0.12701519	      1.17443551	     -0.65456488	    -12.45016449	      0.52291020	      0.00912650	      7.09263728	     -6.64215282	     -7.49999987	      0.97503298	     -1.34080768	     -7.66762677	      2.38443326	      0.04161621	      4.92331477	      1.01556902	     -7.49999987	      2.87255009	     -2.22087256	      1.05310638	      4.22863575	     -7.68008717	     26.07125490	     28.74809510	     65.52342043	      5.56876149	     -8.32783987	     26.98086836	     26.61224125	     61.20343327
      2.05000000	     -5.11844443	      3.75440274	     -8.71846213	      0.08400368	      1.19803804	      0.12732268	      1.60208283	     -0.66359219	    -12.51794934	      0.53443944	      0.00932773	      7.36421146	     -6.11268520	     -7.49999987	      1.40446358	     -1.37569871	     -7.66520549	      2.18414067	      0.03812045	      4.68551196	      1.16197477	     -7.49999987	      3.73520473	     -2.16630877	      0.88845061	      4.08163937	     -7.86245966	     26.04507100	     29.75001524	     65.53092573	      5.28136232	     -8.65784196	     26.92271769	     27.45287970	     61.16056807
      2.06666670	     -4.49172103	      3.63826360	     -8.76944795	      0.08579098	      1.19726843	      0.12754664	      0.77872562	     -0.65335334	    -12.18139146	      0.50195543	      0.00876077	      7.43918177	     -6.43775410	     -7.49999987	      0.53339811	     -1.39921808	     -7.63362745	      1.97174029	      0.03441336	      4.61103555	      1.05727589	     -7.49999987	      3.12675357	     -2.10356824	      0.95289293	      4.76263880	     -7.91809810	     26.18206632	     29.71922997	     66.12696705	      5.91717968	     -8.67978020	     26.94268087	     27.25580898	     61.22799864
